<svg width="329" height="74" viewBox="0 0 329 74" fill="none" xmlns="http://www.w3.org/2000/svg">
<path d="M8.16463 60.5643C8.16463 60.5643 8.37463 60.6743 8.74463 60.8443C8.93463 60.8043 9.12463 60.7743 9.30463 60.7543L9.56463 60.7343C10.0146 60.7043 10.4346 60.6643 10.8646 60.6643C12.6446 60.6643 14.4346 61.2043 17.8546 63.9143L17.9146 63.9643C18.4346 64.0043 18.9046 63.9743 19.2846 63.8743C10.0646 54.1443 6.48462 42.3143 6.24463 36.1343C9.68463 51.7743 18.2546 59.2843 18.2546 59.2843C18.2546 59.2843 21.2046 50.5543 17.1446 42.2743C13.0846 33.9943 6.85463 31.3843 3.62463 29.6543C2.42463 31.1343 -0.435374 43.2143 0.954625 49.9143C2.33463 56.6143 8.18463 60.5443 8.18463 60.5443L8.16463 60.5643Z" fill="#EFBD62"/>
<path d="M3.64477 64.4045C3.64477 64.4045 7.05477 61.5145 9.33477 61.3445C11.6148 61.1845 13.1148 60.9145 17.5148 64.4045C17.0248 64.5345 12.0048 66.0145 7.51477 65.1245C9.79477 66.1045 12.6448 66.7945 19.0448 64.7245C18.8948 66.1045 16.0648 69.6545 12.0648 69.6545C8.06477 69.6545 3.63477 64.3945 3.63477 64.3945L3.64477 64.4045Z" fill="#EFBD62"/>
<path d="M77.0847 58.9146C77.0847 58.9146 76.8447 59.0546 76.4247 59.2746C76.2147 59.2246 76.0047 59.1846 75.7847 59.1646L75.4947 59.1446C74.9847 59.1046 74.4947 59.0646 73.9947 59.0646C71.9447 59.0646 69.8847 59.7546 65.9447 63.1746L65.8847 63.2246C65.2847 63.2746 64.7447 63.2446 64.3047 63.1046C74.9047 50.8346 79.0247 35.9146 79.3147 28.1246C75.3547 47.8546 65.5047 57.3246 65.5047 57.3246C65.5047 57.3246 62.1047 46.3146 66.7747 35.8746C71.4447 25.4346 78.6047 22.1346 82.3247 19.9546C83.7047 21.8246 86.9947 37.0546 85.4047 45.5046C83.8147 53.9646 77.0947 58.9146 77.0947 58.9146H77.0847Z" fill="#EFBD62"/>
<path d="M82.2847 63.7648C82.2847 63.7648 78.3547 60.1148 75.7347 59.9048C73.1147 59.6948 71.3847 59.3648 66.3247 63.7648C66.8947 63.9248 72.6547 65.7948 77.8247 64.6748C75.2047 65.9148 71.9147 66.7848 64.5547 64.1748C64.7347 65.9148 67.9847 70.3948 72.5847 70.3948C77.1847 70.3948 82.2747 63.7648 82.2747 63.7648H82.2847Z" fill="#EFBD62"/>
<path d="M61.5644 2.19437C60.2744 0.714367 53.9044 1.79437 52.2444 2.09437C50.5844 2.39437 45.7844 2.19437 45.1444 1.60437C44.6044 1.10437 42.4344 0.824367 40.6044 0.704367V26.8944C40.6044 28.7244 39.7444 29.6344 38.0344 29.6344H27.7744C26.0644 29.6344 25.2044 28.7244 25.2044 26.8944V17.2944C25.2044 15.4644 26.0644 14.5544 27.7744 14.5544H35.4744V18.6644H29.0644V25.5144H36.7644V13.5744H33.4644V10.5244H36.7644V1.12437C35.4644 1.46437 34.1444 1.85437 33.1644 1.79437C31.4144 1.69437 29.2944 1.79437 28.3644 1.30437C27.4444 0.814367 25.3144 0.124367 22.7344 1.30437C20.1544 2.48437 20.0644 8.89437 20.0644 8.89437C20.5244 12.2444 20.6144 28.2144 20.6144 34.8244C20.6144 41.4344 19.8744 55.2344 20.0644 63.7144C20.2444 72.1944 24.0344 73.0844 25.1344 73.0944C26.2444 73.1044 27.7644 72.5544 28.6444 72.3944C32.9044 71.6144 44.2544 71.2744 45.9144 71.3644C47.4544 71.4544 52.5744 72.0044 54.4744 72.5644V55.9044H51.0644V66.8744H47.2144V41.8644H51.0644V51.7944H55.7544C57.4644 51.7944 58.3244 52.7044 58.3244 54.5344V73.0644C59.1144 73.0044 59.8944 72.8844 60.6644 72.6844C62.6044 72.1944 62.9744 65.8844 62.9744 65.8844C62.9744 65.8844 63.0644 19.7444 63.4344 13.5344C63.8044 7.32437 62.8744 3.67437 61.5844 2.19437H61.5644ZM46.3444 7.62437C46.3444 7.62437 47.4544 7.36437 47.8244 7.33437C49.7444 7.20437 50.8844 7.94437 52.9144 7.94437C53.3944 7.94437 54.8544 7.62437 54.8544 7.62437V9.38437C54.8544 9.38437 53.4044 9.71437 52.9144 9.71437C50.8344 9.71437 49.0944 9.01437 47.8244 9.10437C47.4444 9.13437 46.3444 9.39437 46.3444 9.39437V7.63437V7.62437ZM46.3444 11.9544C46.3444 10.9444 46.8144 10.4344 47.7644 10.4344H53.4344C54.3744 10.4344 54.8544 10.9444 54.8544 11.9544V13.2044H52.7244V12.3644H48.4744V13.2044H46.3444V11.9544ZM42.9044 17.3044C42.9044 15.4744 43.7644 14.5644 45.4744 14.5644H55.7344C57.4444 14.5644 58.3044 15.4744 58.3044 17.3044V26.9044C58.3044 28.7344 57.4444 29.6444 55.7344 29.6444H45.4744C43.7644 29.6444 42.9144 28.7344 42.9144 26.9044V17.3044H42.9044ZM29.0544 66.8744H25.2044V55.3344H29.0544V66.8744ZM29.0544 53.8544H25.2044V51.7944H29.0544V53.8544ZM43.6844 66.8744H39.8344V55.9044H35.2044V66.8744H31.3544V54.5344C31.3544 52.7044 32.2144 51.7944 33.9244 51.7944H41.1144C42.8244 51.7944 43.6844 52.7044 43.6844 54.5344V66.8744ZM58.3044 48.0244H54.4544V37.0544H43.6744V48.0244H39.8244V37.0544H29.0544V48.0244H25.2044V35.6844C25.2044 33.8544 26.0644 32.9444 27.7744 32.9444H55.7344C57.4444 32.9444 58.3044 33.8644 58.3044 35.6844V48.0244Z" fill="#EFBD62"/>
<path d="M46.7539 18.6743H54.4539V25.5243H46.7539V18.6743Z" fill="#EFBD62"/>
<path d="M105.693 45.9045C106.643 45.9045 107.393 46.1145 107.933 46.5245C108.473 46.9345 108.743 47.5545 108.743 48.3745C108.743 48.7845 108.613 49.1445 108.353 49.4645C108.093 49.7845 107.753 50.0245 107.333 50.1745C107.883 50.2945 108.313 50.5645 108.633 50.9845C108.953 51.4045 109.113 51.8945 109.113 52.4545C109.113 53.2945 108.843 53.9345 108.293 54.3745C107.743 54.8145 107.013 55.0345 106.083 55.0345H101.693V54.2445L102.713 54.0745V46.8745L101.693 46.6945V45.8945H105.693V45.9045ZM103.953 49.7945H106.013C106.453 49.7845 106.813 49.6545 107.093 49.3945C107.363 49.1445 107.503 48.7945 107.503 48.3545C107.503 47.8645 107.343 47.4945 107.043 47.2445C106.733 46.9945 106.283 46.8745 105.703 46.8745H103.963V49.7845L103.953 49.7945ZM103.953 50.7545V54.0745H106.083C106.643 54.0745 107.083 53.9345 107.393 53.6545C107.703 53.3745 107.863 52.9845 107.863 52.4745C107.863 51.9645 107.733 51.5145 107.473 51.2145C107.213 50.9045 106.813 50.7545 106.273 50.7545H103.953Z" fill="#FEEFD1"/>
<path d="M110.033 54.2542L110.713 54.1642L113.903 45.9142H114.963L118.103 54.1642L118.773 54.2542V55.0442H116.153V54.2542L116.843 54.1342L116.243 52.4542H112.583L111.963 54.1342L112.653 54.2542V55.0442H110.033V54.2542ZM114.973 45.2642H113.973L112.413 43.6342L112.433 43.5942H113.873L114.973 45.2642ZM112.963 51.4142H115.863L114.443 47.4942H114.403L112.963 51.4142Z" fill="#FEEFD1"/>
<path d="M119.533 46.7043V45.9043H122.813V46.7043L121.793 46.8843V54.0843L122.813 54.2543V55.0443H119.533V54.2543L120.553 54.0843V46.8843L119.533 46.7043Z" fill="#FEEFD1"/>
<path d="M134.264 45.9043V47.9243H133.214L133.124 46.8743H131.094V54.0743L132.114 54.2443V55.0343H128.834V54.2443L129.854 54.0743V46.8743H127.824L127.734 47.9243H126.674V45.9043H134.264Z" fill="#FEEFD1"/>
<path d="M134.943 46.7043V45.9043H138.223V46.7043L137.203 46.8843V50.0443H141.633V46.8843L140.613 46.7043V45.9043H143.893V46.7043L142.873 46.8843V54.0843L143.893 54.2543V55.0443H140.613V54.2543L141.633 54.0843V51.0143H137.203V54.0843L138.223 54.2543V55.0443H134.943V54.2543L135.963 54.0843V46.8843L134.943 46.7043Z" fill="#FEEFD1"/>
<path d="M148.034 45.9043V46.7043L147.014 46.8843V52.1043C147.014 52.7943 147.214 53.3143 147.604 53.6743C147.994 54.0343 148.514 54.2143 149.164 54.2143C149.844 54.2143 150.384 54.0343 150.804 53.6843C151.224 53.3343 151.424 52.8043 151.424 52.1143V46.8943L150.404 46.7143V45.9143H153.684V46.7143L152.664 46.8943V52.1143C152.664 53.1043 152.344 53.8643 151.694 54.3943C151.044 54.9243 150.204 55.1843 149.164 55.1843C148.124 55.1843 147.344 54.9243 146.714 54.3943C146.084 53.8643 145.784 53.1043 145.784 52.1143V46.8943L144.764 46.7143V45.9143H148.044L148.034 45.9043Z" fill="#FEEFD1"/>
<path d="M162.623 50.5443C162.623 51.8743 162.243 52.9743 161.473 53.8543C160.713 54.7343 159.723 55.1743 158.513 55.1743C157.303 55.1743 156.373 54.7343 155.643 53.8543C154.903 52.9743 154.543 51.8743 154.543 50.5443V50.4143C154.543 49.0843 154.913 47.9843 155.643 47.1043C156.383 46.2243 157.333 45.7843 158.513 45.7843C159.693 45.7843 160.713 46.2243 161.473 47.1043C162.233 47.9843 162.623 49.0943 162.623 50.4143V50.5443ZM161.383 50.3943C161.383 49.3343 161.133 48.4643 160.623 47.7943C160.113 47.1243 159.413 46.7843 158.513 46.7843C157.613 46.7843 156.983 47.1243 156.493 47.7943C156.013 48.4643 155.773 49.3343 155.773 50.3943V50.5343C155.773 51.6043 156.013 52.4743 156.493 53.1443C156.973 53.8143 157.653 54.1543 158.513 54.1543C159.423 54.1543 160.133 53.8243 160.633 53.1543C161.133 52.4843 161.383 51.6143 161.383 50.5343V50.3943ZM158.033 43.7643H159.023L160.833 45.3743V45.4143H159.573L158.523 44.4243L157.473 45.4143H156.223V45.3743L158.023 43.7643H158.033ZM161.283 42.6743H162.603L161.323 44.3043H160.403L161.283 42.6743Z" fill="#FEEFD1"/>
<path d="M170.633 48.7144H169.763L169.533 47.4244C169.333 47.2244 169.083 47.0644 168.793 46.9444C168.503 46.8144 168.153 46.7544 167.743 46.7544C166.793 46.7544 166.063 47.0944 165.553 47.7844C165.043 48.4744 164.783 49.3444 164.783 50.4044V50.5444C164.783 51.6044 165.033 52.4744 165.533 53.1744C166.033 53.8644 166.723 54.2144 167.613 54.2144C168.023 54.2144 168.403 54.1544 168.743 54.0244C169.083 53.8944 169.343 53.7344 169.523 53.5444L169.753 52.2544H170.623V53.8744C170.363 54.2144 169.963 54.5144 169.433 54.7844C168.903 55.0544 168.293 55.1844 167.603 55.1844C166.413 55.1844 165.443 54.7444 164.683 53.8644C163.923 52.9844 163.543 51.8844 163.543 50.5544V50.4244C163.543 49.0844 163.913 47.9744 164.663 47.1044C165.413 46.2344 166.393 45.7944 167.603 45.7944C168.293 45.7944 168.903 45.9244 169.433 46.1944C169.963 46.4644 170.353 46.7644 170.623 47.1044V48.7244L170.633 48.7144Z" fill="#FEEFD1"/>
<path d="M182.304 54.0042C182.034 54.2842 181.644 54.5442 181.114 54.7942C180.594 55.0442 179.914 55.1642 179.074 55.1642C177.854 55.1642 176.854 54.7342 176.084 53.8742C175.314 53.0142 174.924 51.9042 174.924 50.5342V50.3842C174.924 49.0042 175.304 47.8942 176.074 47.0442C176.834 46.1942 177.854 45.7642 179.124 45.7642C179.804 45.7642 180.394 45.8742 180.914 46.0842C181.424 46.2942 181.854 46.5742 182.214 46.9242V48.5842H181.344L181.044 47.3242C180.834 47.1542 180.594 47.0142 180.304 46.9142C180.014 46.8042 179.664 46.7542 179.264 46.7542C178.274 46.7542 177.514 47.0942 176.984 47.7642C176.454 48.4442 176.184 49.3142 176.184 50.3942V50.5542C176.184 51.6442 176.444 52.5242 176.954 53.2042C177.464 53.8842 178.184 54.2142 179.094 54.2142C179.594 54.2142 180.004 54.1642 180.314 54.0542C180.634 53.9542 180.884 53.8342 181.084 53.7042V51.7042L179.584 51.6442V50.7342H182.324V54.0142L182.304 54.0042Z" fill="#FEEFD1"/>
<path d="M183.734 46.7043V45.9043H187.014V46.7043L185.994 46.8843V54.0843L187.014 54.2543V55.0443H183.734V54.2543L184.754 54.0843V46.8843L183.734 46.7043Z" fill="#FEEFD1"/>
<path d="M187.793 54.2546L188.473 54.1646L191.663 45.9146H192.723L195.863 54.1646L196.533 54.2546V55.0446H193.913V54.2546L194.603 54.1346L194.003 52.4546H190.343L189.723 54.1346L190.413 54.2546V55.0446H187.793V54.2546ZM190.723 51.4146H193.623L192.203 47.4946H192.163L190.723 51.4146Z" fill="#FEEFD1"/>
<path d="M207.873 45.9043V47.9243H206.823L206.733 46.8743H204.703V54.0743L205.723 54.2443V55.0343H202.443V54.2443L203.463 54.0743V46.8743H201.433L201.343 47.9243H200.283V45.9043H207.873Z" fill="#FEEFD1"/>
<path d="M212.564 45.9143C213.564 45.9143 214.324 46.1343 214.854 46.5743C215.384 47.0143 215.654 47.6443 215.654 48.4543C215.654 48.8943 215.534 49.2943 215.284 49.6343C215.034 49.9743 214.684 50.2443 214.224 50.4443C214.724 50.6043 215.084 50.8743 215.304 51.2443C215.524 51.6143 215.634 52.0643 215.634 52.6043V53.3343C215.634 53.6143 215.674 53.8243 215.744 53.9543C215.814 54.0843 215.934 54.1643 216.094 54.1943L216.394 54.2343V55.0443H215.724C215.244 55.0443 214.904 54.8743 214.694 54.5443C214.484 54.2143 214.394 53.8043 214.394 53.3243V52.6143C214.394 52.1143 214.254 51.7143 213.964 51.4143C213.674 51.1143 213.284 50.9643 212.804 50.9643H210.824V54.0743L211.844 54.2443V55.0343H208.564V54.2443L209.584 54.0743V46.8743L208.564 46.6943V45.9043H212.574L212.564 45.9143ZM210.814 49.9943H212.434C213.124 49.9943 213.624 49.8643 213.944 49.5943C214.254 49.3343 214.414 48.9443 214.414 48.4443C214.414 47.9443 214.264 47.5843 213.964 47.3043C213.664 47.0243 213.194 46.8843 212.564 46.8843H210.814V49.9943Z" fill="#FEEFD1"/>
<path d="M220.463 45.9043V46.7043L219.443 46.8843V52.1043C219.443 52.7943 219.643 53.3143 220.033 53.6743C220.423 54.0343 220.943 54.2143 221.593 54.2143C222.273 54.2143 222.813 54.0343 223.233 53.6843C223.653 53.3343 223.853 52.8043 223.853 52.1143V46.8943L222.833 46.7143V45.9143H226.113V46.7143L225.093 46.8943V52.1143C225.093 53.1043 224.773 53.8643 224.123 54.3943C223.473 54.9243 222.633 55.1843 221.593 55.1843C220.553 55.1843 219.773 54.9243 219.143 54.3943C218.523 53.8643 218.213 53.1043 218.213 52.1143V46.8943L217.193 46.7143V45.9143H220.473L220.463 45.9043Z" fill="#FEEFD1"/>
<path d="M229.953 46.7043L228.963 46.8243L230.873 50.5543L232.783 46.8243L231.803 46.7043V45.9043H234.943V46.7043L234.173 46.8243L231.463 51.8343V54.0843L232.483 54.2543V55.0443H229.203V54.2543L230.223 54.0843V51.7443L227.563 46.8343L226.793 46.7143V45.9143H229.933V46.7143L229.953 46.7043Z" fill="#FEEFD1"/>
<path d="M237.604 44.3341H236.684L235.414 42.7041H236.734L237.614 44.3341H237.604ZM235.804 55.0441V54.2541L236.824 54.0841V46.8841L235.804 46.7041V45.9041H242.814V48.1041H241.754L241.654 46.8841H238.054V49.8441H241.554V50.8141H238.054V54.0841H241.724L241.824 52.8641H242.874V55.0541H235.794L235.804 55.0441ZM241.784 45.3941V45.4341H240.524L239.474 44.4441L238.424 45.4341H237.184V45.3941L238.974 43.7841H239.964L241.774 45.3941H241.784Z" fill="#FEEFD1"/>
<path d="M252.944 45.9043V46.7043L251.924 46.8843V55.0443H250.684L246.294 47.9943H246.254V54.0843L247.274 54.2543V55.0443H243.994V54.2543L245.014 54.0843V46.8843L243.994 46.7043V45.9043H246.254L250.644 52.9543H250.684V46.8843L249.664 46.7043V45.9043H252.944Z" fill="#FEEFD1"/>
<path d="M264.363 45.9043V47.9243H263.313L263.223 46.8743H261.193V54.0743L262.213 54.2443V55.0343H258.933V54.2443L259.953 54.0743V46.8743H257.923L257.833 47.9243H256.773V45.9043H264.363Z" fill="#FEEFD1"/>
<path d="M269.043 45.9143C270.043 45.9143 270.803 46.1343 271.333 46.5743C271.863 47.0143 272.133 47.6443 272.133 48.4543C272.133 48.8943 272.013 49.2943 271.763 49.6343C271.513 49.9743 271.163 50.2443 270.703 50.4443C271.203 50.6043 271.563 50.8743 271.783 51.2443C272.003 51.6143 272.113 52.0643 272.113 52.6043V53.3343C272.113 53.6143 272.153 53.8243 272.223 53.9543C272.293 54.0843 272.413 54.1643 272.573 54.1943L272.873 54.2343V55.0443H272.203C271.723 55.0443 271.383 54.8743 271.173 54.5443C270.973 54.2143 270.873 53.8043 270.873 53.3243V52.6143C270.873 52.1143 270.733 51.7143 270.443 51.4143C270.153 51.1143 269.763 50.9643 269.283 50.9643H267.303V54.0743L268.323 54.2443V55.0343H265.043V54.2443L266.063 54.0743V46.8743L265.043 46.6943V45.9043H269.053L269.043 45.9143ZM267.293 49.9943H268.913C269.603 49.9943 270.103 49.8643 270.423 49.5943C270.743 49.3243 270.893 48.9443 270.893 48.4443C270.893 47.9443 270.743 47.5843 270.443 47.3043C270.143 47.0243 269.673 46.8843 269.043 46.8843H267.293V49.9943Z" fill="#FEEFD1"/>
<path d="M273.633 54.2542L274.313 54.1642L277.503 45.9142H278.563L281.703 54.1642L282.373 54.2542V55.0442H279.753V54.2542L280.443 54.1342L279.843 52.4542H276.183L275.563 54.1342L276.253 54.2542V55.0442H273.633V54.2542ZM279.833 43.3242V43.3642C279.863 43.8442 279.703 44.2442 279.363 44.5542C279.023 44.8642 278.573 45.0142 277.993 45.0142C277.413 45.0142 276.953 44.8642 276.623 44.5542C276.293 44.2442 276.123 43.8542 276.143 43.3642V43.3242H277.093C277.093 43.5942 277.163 43.8242 277.313 43.9942C277.453 44.1642 277.683 44.2542 277.993 44.2542C278.303 44.2542 278.523 44.1642 278.663 43.9942C278.813 43.8242 278.883 43.5942 278.883 43.3242H279.833ZM276.563 51.4142H279.463L278.043 47.4942H278.003L276.563 51.4142Z" fill="#FEEFD1"/>
<path d="M292.073 47.7245H292.043L289.083 55.0445H288.263L285.303 47.7245H285.273L285.393 51.4245V54.0745L286.413 54.2445V55.0345H283.133V54.2445L284.153 54.0745V46.8745L283.133 46.6945V45.8945H285.733L288.643 53.3145H288.683L291.593 45.8945H294.203V46.6945L293.183 46.8745V54.0745L294.203 54.2445V55.0345H290.923V54.2445L291.943 54.0745V51.4245L292.063 47.7245H292.073Z" fill="#FEEFD1"/>
<path d="M307.243 45.9043V46.7043L306.223 46.8843V55.0443H304.983L300.593 47.9943H300.553V54.0843L301.573 54.2543V55.0443H298.293V54.2543L299.313 54.0843V46.8843L298.293 46.7043V45.9043H300.553L304.943 52.9543H304.983V46.8843L303.963 46.7043V45.9043H307.243Z" fill="#FEEFD1"/>
<path d="M307.453 54.2542L308.133 54.1642L311.323 45.9142H312.383L315.523 54.1642L316.193 54.2542V55.0442H313.573V54.2542L314.263 54.1342L313.663 52.4542H310.003L309.383 54.1342L310.073 54.2542V55.0442H307.453V54.2542ZM313.643 43.3242V43.3642C313.673 43.8442 313.513 44.2442 313.173 44.5542C312.833 44.8642 312.383 45.0142 311.803 45.0142C311.223 45.0142 310.763 44.8642 310.433 44.5542C310.103 44.2442 309.933 43.8542 309.953 43.3642V43.3242H310.903C310.903 43.5942 310.973 43.8242 311.123 43.9942C311.263 44.1642 311.493 44.2542 311.803 44.2542C312.113 44.2542 312.333 44.1642 312.473 43.9942C312.623 43.8242 312.693 43.5942 312.693 43.3242H313.643ZM310.383 51.4142H313.283L311.863 47.4942H311.823L310.383 51.4142Z" fill="#FEEFD1"/>
<path d="M325.893 47.7245H325.863L322.903 55.0445H322.083L319.123 47.7245H319.093L319.213 51.4245V54.0745L320.233 54.2445V55.0345H316.953V54.2445L317.973 54.0745V46.8745L316.953 46.6945V45.8945H319.553L322.463 53.3145H322.503L325.413 45.8945H328.023V46.6945L327.003 46.8745V54.0745L328.023 54.2445V55.0345H324.743V54.2445L325.763 54.0745V51.4245L325.883 47.7245H325.893Z" fill="#FEEFD1"/>
<path d="M108.774 65.8443H107.904L107.674 64.5543C107.474 64.3543 107.224 64.1943 106.934 64.0743C106.644 63.9443 106.294 63.8843 105.884 63.8843C104.934 63.8843 104.204 64.2243 103.694 64.9143C103.184 65.6043 102.924 66.4743 102.924 67.5343V67.6743C102.924 68.7343 103.174 69.6043 103.674 70.3043C104.174 70.9943 104.864 71.3443 105.754 71.3443C106.164 71.3443 106.544 71.2843 106.884 71.1543C107.224 71.0243 107.484 70.8643 107.664 70.6743L107.894 69.3843H108.764V71.0043C108.504 71.3443 108.104 71.6443 107.574 71.9143C107.044 72.1843 106.434 72.3143 105.744 72.3143C104.554 72.3143 103.584 71.8743 102.824 70.9943C102.064 70.1143 101.684 69.0143 101.684 67.6843V67.5543C101.684 66.2143 102.054 65.1043 102.804 64.2343C103.554 63.3643 104.534 62.9243 105.744 62.9243C106.434 62.9243 107.044 63.0543 107.574 63.3243C108.104 63.5943 108.494 63.8943 108.764 64.2343V65.8543L108.774 65.8443Z" fill="#FEEFD1"/>
<path d="M109.984 63.8342V63.0342H113.264V63.8342L112.244 64.0142V67.1742H116.674V64.0142L115.654 63.8342V63.0342H118.934V63.8342L117.914 64.0142V71.2142L118.934 71.3842V72.1742H115.654V71.3842L116.674 71.2142V68.1442H112.244V71.2142L113.264 71.3842V72.1742H109.984V71.3842L111.004 71.2142V64.0142L109.984 63.8342Z" fill="#FEEFD1"/>
<path d="M127.393 64.3241H127.433C127.953 64.3241 128.313 64.1641 128.523 63.8541C128.733 63.5441 128.833 63.0741 128.833 62.4541H129.903V62.4841C129.933 63.3641 129.733 64.0341 129.323 64.5041C128.913 64.9741 128.273 65.2241 127.383 65.2541V69.2341C127.383 70.2241 127.063 70.9841 126.413 71.5141C125.763 72.0441 124.923 72.3041 123.883 72.3041C122.843 72.3041 122.053 72.0441 121.433 71.5141C120.803 70.9841 120.493 70.2241 120.493 69.2341V64.0141L119.473 63.8341V63.0341H122.763V63.8341L121.743 64.0141V69.2341C121.743 69.9241 121.943 70.4441 122.333 70.8041C122.723 71.1641 123.243 71.3441 123.893 71.3441C124.573 71.3441 125.113 71.1641 125.533 70.8041C125.953 70.4441 126.153 69.9241 126.153 69.2341V64.0141L125.133 63.8341V63.0341H127.393V64.3241ZM126.003 60.6341C126.003 61.0241 125.883 61.3641 125.633 61.6341C125.383 61.9041 125.073 62.0441 124.693 62.0441C124.393 62.0441 124.083 61.9441 123.763 61.7541C123.443 61.5641 123.173 61.4641 122.963 61.4641C122.793 61.4641 122.633 61.5341 122.513 61.6641C122.393 61.8041 122.333 61.9641 122.333 62.1541L121.663 61.9941C121.663 61.6041 121.783 61.2641 122.033 60.9841C122.273 60.6941 122.593 60.5541 122.973 60.5541C123.203 60.5541 123.503 60.6541 123.853 60.8441C124.203 61.0341 124.493 61.1341 124.703 61.1341C124.873 61.1341 125.023 61.0641 125.153 60.9341C125.283 60.7941 125.343 60.6341 125.343 60.4341L126.023 60.6341H126.003Z" fill="#FEEFD1"/>
<path d="M130.514 71.3844L131.194 71.2944L134.384 63.0444H135.444L138.584 71.2944L139.254 71.3844V72.1744H136.634V71.3844L137.324 71.2644L136.724 69.5844H133.064L132.444 71.2644L133.134 71.3844V72.1744H130.514V71.3844ZM133.444 68.5444H136.344L134.924 64.6244H134.884L133.444 68.5444Z" fill="#FEEFD1"/>
<path d="M143.213 71.3842L144.233 71.2142V64.0142L143.213 63.8342V63.0342H146.493V63.8342L145.473 64.0142V67.0842H146.423L148.973 63.9242L148.293 63.8342V63.0342H151.193V63.8342L150.333 63.9942L147.543 67.4542L150.593 71.2242L151.453 71.3842V72.1742H148.453V71.3842L149.153 71.2942L146.553 68.0542H145.483V71.2142L146.503 71.3842V72.1742H143.223V71.3842H143.213Z" fill="#FEEFD1"/>
<path d="M152.324 63.8342V63.0342H155.604V63.8342L154.584 64.0142V67.1742H159.014V64.0142L157.994 63.8342V63.0342H161.274V63.8342L160.254 64.0142V71.2142L161.274 71.3842V72.1742H157.994V71.3842L159.014 71.2142V68.1442H154.584V71.2142L155.604 71.3842V72.1742H152.324V71.3842L153.344 71.2142V64.0142L152.324 63.8342Z" fill="#FEEFD1"/>
<path d="M170.334 67.6741C170.334 69.0041 169.954 70.1041 169.184 70.9841C168.424 71.8641 167.434 72.3041 166.224 72.3041C165.014 72.3041 164.084 71.8641 163.354 70.9841C162.614 70.1041 162.254 69.0041 162.254 67.6741V67.5441C162.254 66.2141 162.624 65.1141 163.354 64.2341C164.094 63.3541 165.044 62.9141 166.224 62.9141C167.404 62.9141 168.424 63.3541 169.184 64.2341C169.944 65.1141 170.334 66.2241 170.334 67.5441V67.6741ZM169.104 67.5341C169.104 66.4741 168.854 65.6041 168.344 64.9341C167.834 64.2641 167.134 63.9241 166.234 63.9241C165.334 63.9241 164.704 64.2641 164.214 64.9341C163.734 65.6041 163.494 66.4741 163.494 67.5341V67.6741C163.494 68.7441 163.734 69.6141 164.214 70.2841C164.694 70.9541 165.374 71.2941 166.234 71.2941C167.144 71.2941 167.854 70.9641 168.354 70.2941C168.854 69.6241 169.104 68.7541 169.104 67.6741V67.5341ZM165.884 62.2741V61.3041C166.194 61.2841 166.424 61.2441 166.554 61.1841C166.694 61.1241 166.754 61.0041 166.754 60.8441C166.754 60.6841 166.664 60.5641 166.474 60.4841C166.294 60.4041 166.054 60.3641 165.754 60.3641L165.794 59.6841C166.404 59.6841 166.874 59.7941 167.204 60.0041C167.534 60.2141 167.704 60.5041 167.704 60.8641C167.704 61.1541 167.614 61.3841 167.434 61.5341C167.254 61.6841 167.024 61.7841 166.764 61.8241V62.2741H165.884Z" fill="#FEEFD1"/>
<path d="M171.254 63.8342V63.0342H174.534V63.8342L173.514 64.0142V71.2142L174.534 71.3842V72.1742H171.254V71.3842L172.274 71.2142V64.0142L171.254 63.8342Z" fill="#FEEFD1"/>
<path d="M187.543 64.8642H187.513L184.553 72.1842H183.733L180.773 64.8642H180.743L180.873 68.5642V71.2142L181.893 71.3842V72.1742H178.613V71.3842L179.633 71.2142V64.0142L178.613 63.8342V63.0342H181.213L184.123 70.4542H184.163L187.073 63.0342H189.683V63.8342L188.663 64.0142V71.2142L189.683 71.3842V72.1742H186.403V71.3842L187.423 71.2142V68.5642L187.543 64.8642Z" fill="#FEEFD1"/>
<path d="M192.364 61.4645H191.444L190.174 59.8345H191.494L192.374 61.4645H192.364ZM190.564 72.1745V71.3845L191.584 71.2145V64.0145L190.564 63.8345V63.0345H197.574V65.2345H196.514L196.414 64.0145H192.814V66.9745H196.314V67.9445H192.814V71.2145H196.484L196.584 69.9945H197.634V72.1845H190.554L190.564 72.1745ZM196.544 62.5345V62.5745H195.284L194.234 61.5845L193.184 62.5745H191.944V62.5345L193.734 60.9245H194.724L196.534 62.5345H196.544Z" fill="#FEEFD1"/>
<path d="M205.974 63.0444C207.164 63.0444 208.124 63.4144 208.854 64.1444C209.584 64.8744 209.944 65.8244 209.944 66.9944V68.2444C209.944 69.4144 209.584 70.3644 208.854 71.0944C208.124 71.8244 207.164 72.1844 205.974 72.1844H202.144V71.3944L203.164 71.2244V68.0344H201.924V67.0644H203.164V64.0344L202.144 63.8544V63.0544H205.974V63.0444ZM205.944 68.0144H204.404V71.2044H205.974C206.814 71.2044 207.484 70.9244 207.974 70.3744C208.464 69.8244 208.704 69.1044 208.704 68.2344V66.9744C208.704 66.1144 208.464 65.4044 207.974 64.8444C207.484 64.2844 206.824 64.0144 205.974 64.0144H204.404V67.0444H205.944V68.0144Z" fill="#FEEFD1"/>
<path d="M210.443 71.3844L211.123 71.2944L214.313 63.0444H215.373L218.513 71.2944L219.183 71.3844V72.1744H216.563V71.3844L217.253 71.2644L216.653 69.5844H212.993L212.373 71.2644L213.063 71.3844V72.1744H210.443V71.3844ZM213.373 68.5444H216.273L214.853 64.6244H214.813L213.373 68.5444Z" fill="#FEEFD1"/>
<path d="M221.383 63.8342L220.393 63.9542L222.303 67.6842L224.213 63.9542L223.233 63.8342V63.0342H226.373V63.8342L225.603 63.9542L222.893 68.9642V71.2142L223.913 71.3842V72.1742H220.633V71.3842L221.653 71.2142V68.8742L218.993 63.9642L218.223 63.8442V63.0442H221.363V63.8442L221.383 63.8342Z" fill="#FEEFD1"/>
<path d="M120.334 17.8543H120.254L115.164 31.9243H112.604L107.534 17.8943H107.454L107.824 26.2543V29.2443L109.864 29.6343V31.9243H101.984V29.6343L104.004 29.2443V15.5943L101.984 15.2043V12.9043H108.984L113.834 26.9243H113.914L118.804 12.9043H125.834V15.2043L123.794 15.5943V29.2443L125.834 29.6343V31.9243H117.954V29.6343L119.974 29.2443V26.2543L120.344 17.8543H120.334Z" fill="#EFBD62"/>
<path d="M130.955 9.75436H128.775L125.875 6.28436L125.905 6.21436H128.835L130.965 9.75436H130.955ZM139.455 23.5644H133.015V28.9944H139.155L139.325 26.7244H142.225V31.9244H127.175V29.6344L129.195 29.2444V15.5944L127.175 15.2044V12.9044H142.195V18.1144H139.265L139.095 15.8444H133.005V20.6244H139.445V23.5644H139.455ZM139.485 11.4944L139.455 11.5744H136.755L134.785 9.87436L132.815 11.5744H130.125L130.095 11.4944L133.725 8.51436H135.855L139.485 11.4944Z" fill="#EFBD62"/>
<path d="M159.774 12.9043C162.104 12.9043 164.014 13.6443 165.524 15.1343C167.034 16.6143 167.784 18.5243 167.784 20.8443V23.9943C167.784 26.3243 167.034 28.2343 165.524 29.7143C164.014 31.1943 162.104 31.9243 159.774 31.9243H151.214V29.6343L153.234 29.2443V23.2343H150.684V21.2143H153.234V15.5943L151.214 15.2043V12.9043H159.774ZM159.844 23.2343H157.044V28.9943H159.564C160.934 28.9943 162.004 28.5343 162.774 27.6143C163.544 26.6943 163.934 25.4843 163.934 23.9943V20.8243C163.934 19.3543 163.544 18.1543 162.774 17.2343C161.994 16.3143 160.924 15.8543 159.564 15.8543H157.044V21.2243H159.844V23.2443V23.2343Z" fill="#EFBD62"/>
<path d="M168.664 29.634L170.024 29.434L175.814 12.894H179.724L185.474 29.434L186.834 29.634V31.924H180.354V29.634L181.674 29.394L180.834 26.784H174.664L173.824 29.394L175.144 29.634V31.924H168.664V29.634ZM175.564 23.984H179.924L177.784 17.284H177.704L175.564 23.984Z" fill="#EFBD62"/>
<path d="M191.674 15.204L190.124 15.424L193.074 21.664H193.154L196.104 15.424L194.564 15.204V12.904H201.764V15.204L200.144 15.464L194.974 25.234V29.244L197.014 29.634V31.924H189.134V29.634L191.174 29.244V25.034L186.094 15.454L184.484 15.194V12.894H191.684V15.194L191.674 15.204Z" fill="#EFBD62"/>
<path d="M218.504 12.9043C220.834 12.9043 222.744 13.6443 224.254 15.1343C225.764 16.6143 226.514 18.5243 226.514 20.8443V23.9943C226.514 26.3243 225.764 28.2343 224.254 29.7143C222.744 31.1943 220.834 31.9243 218.504 31.9243H209.944V29.6343L211.964 29.2443V23.2343H209.414V21.2143H211.964V15.5943L209.944 15.2043V12.9043H218.504ZM218.584 23.2343H215.784V28.9943H218.304C219.674 28.9943 220.744 28.5343 221.514 27.6143C222.284 26.6943 222.674 25.4843 222.674 23.9943V20.8243C222.674 19.3543 222.284 18.1543 221.514 17.2343C220.734 16.3143 219.664 15.8543 218.304 15.8543H215.784V21.2243H218.584V23.2443V23.2343Z" fill="#EFBD62"/>
<path d="M245.764 22.5543C245.764 25.3443 244.964 27.6443 243.374 29.4643C241.784 31.2843 239.694 32.1943 237.114 32.1943C234.534 32.1943 232.474 31.2843 230.884 29.4643C229.304 27.6443 228.514 25.3443 228.514 22.5543V22.2643C228.514 19.4943 229.304 17.1943 230.874 15.3643C232.454 13.5343 234.524 12.6243 237.094 12.6243C239.664 12.6243 241.764 13.5443 243.354 15.3643C244.954 17.1943 245.754 19.4943 245.754 22.2643V22.5543H245.764ZM241.964 22.2443C241.964 20.2743 241.554 18.6743 240.734 17.4543C239.914 16.2243 238.704 15.6143 237.104 15.6143C235.504 15.6143 234.304 16.2243 233.514 17.4443C232.724 18.6643 232.334 20.2643 232.334 22.2543V22.5643C232.334 24.5643 232.734 26.1843 233.534 27.4043C234.334 28.6243 235.524 29.2343 237.124 29.2343C238.724 29.2343 239.944 28.6243 240.754 27.4043C241.564 26.1843 241.964 24.5643 241.964 22.5643V22.2543V22.2443ZM241.804 11.5443L241.774 11.6243H239.174L237.114 9.92426L235.034 11.6243H232.434L232.404 11.5443L236.074 8.65426H238.134L241.794 11.5443H241.804ZM240.484 5.84426C240.484 6.38426 240.314 6.85426 239.984 7.26426C239.654 7.67426 239.234 7.87426 238.714 7.87426C238.304 7.87426 237.814 7.73426 237.244 7.45426C236.674 7.17426 236.244 7.03426 235.944 7.03426C235.734 7.03426 235.564 7.12426 235.444 7.30426C235.324 7.48426 235.264 7.70426 235.264 7.95426L233.944 7.58426C233.944 7.04426 234.104 6.56426 234.424 6.14426C234.744 5.72426 235.164 5.51426 235.674 5.51426C235.994 5.51426 236.464 5.65426 237.074 5.93426C237.684 6.21426 238.144 6.35426 238.444 6.35426C238.634 6.35426 238.804 6.25426 238.934 6.05426C239.064 5.85426 239.134 5.62426 239.134 5.36426L240.464 5.83426L240.484 5.84426Z" fill="#EFBD62"/>
<path d="M272.204 17.8543H272.124L267.034 31.9243H264.474L259.404 17.8943H259.324L259.694 26.2543V29.2443L261.734 29.6343V31.9243H253.854V29.6343L255.874 29.2443V15.5943L253.854 15.2043V12.9043H260.854L265.704 26.9243H265.784L270.674 12.9043H277.704V15.2043L275.664 15.5943V29.2443L277.704 29.6343V31.9243H269.824V29.6343L271.844 29.2443V26.2543L272.214 17.8543H272.204Z" fill="#EFBD62"/>
<path d="M279.035 15.2043V12.9043H286.915V15.2043L284.875 15.5943V29.2443L286.915 29.6343V31.9243H279.035V29.6343L281.075 29.2443V15.5943L279.035 15.2043Z" fill="#EFBD62"/>
<path d="M307.805 12.9043V15.2043L305.765 15.5943V31.9243H301.965L294.285 19.1243H294.205V29.2443L296.245 29.6343V31.9243H288.365V29.6343L290.395 29.2443V15.5943L288.365 15.2043V12.9043H294.205L301.885 25.7043H301.965V15.5943L299.925 15.2043V12.9043H307.805Z" fill="#EFBD62"/>
<path d="M309.035 15.2043V12.9043H316.915V15.2043L314.875 15.5943V21.0843H322.635V15.5943L320.595 15.2043V12.9043H328.475V15.2043L326.435 15.5943V29.2443L328.475 29.6343V31.9243H320.595V29.6343L322.635 29.2443V24.0143H314.875V29.2443L316.915 29.6343V31.9243H309.035V29.6343L311.055 29.2443V15.5943L309.035 15.2043Z" fill="#EFBD62"/>
</svg>
